# xmcd CD database file
#
# Track frame offsets:
#	150
#	16573
#	34796
#	47965
#	63042
#	80731
#	99704
#	117931
#	133607
#
# Disc length: 2009 seconds
#
# Revision: 2
# Processed by: cddbd v1.5.1PL2 Copyright (c) Steve Scherf et al.
# Submitted via: CDex 1.51
#
DISCID=6e07d709
DTITLE=ペドロ＆カプリシャス - 究極のベスト!
DYEAR=2005
DGENRE=misc
TTITLE0=ジョニィへの伝言
TTITLE1=五番街のマリーへ
TTITLE2=陽かげりの街
TTITLE3=そして今は(NOW)
TTITLE4=わが町は…
TTITLE5=リサの海
TTITLE6=地平線
TTITLE7=さようならの紅いバラ
TTITLE8=別れの朝
EXTD=YEAR: 2005
EXTT0=
EXTT1=
EXTT2=
EXTT3=
EXTT4=
EXTT5=
EXTT6=
EXTT7=
EXTT8=
PLAYORDER=
